# xmcd
#
# Track frame offsets:
#	150
#	24015
#	51412
#	75250
#
# Disc length: 1348 seconds
#
# Revision: 1
# Processed by: cddbd v1.5.1PL0 Copyright (c) Steve Scherf et al.
# Submitted via: CDex 1.50Beta5
#
DISCID=1e054204
DTITLE=hitomi - Let’s Play Winter
DYEAR=1994
DGENRE=Pop
TTITLE0=hitomi/Let’s Play Winter
TTITLE1=hitomi/PLEASURE
TTITLE2=Let’s Play Winter
TTITLE3=PLESURE
EXTD=
EXTT0=
EXTT1=
EXTT2=
EXTT3=
PLAYORDER=
